<svg xmlns="http://www.w3.org/2000/svg" 
    viewBox="0 0 20 20" 
    fill="none"
  >
    <path d="M7.5 2.5H3.33333C2.8731 2.5 2.5 2.8731 2.5 3.33333V9.16667C2.5 9.6269 2.8731 10 3.33333 10H7.5C7.96024 10 8.33333 9.6269 8.33333 9.16667V3.33333C8.33333 2.8731 7.96024 2.5 7.5 2.5Z" stroke="currentColor" stroke-width="1.66667" stroke-linecap="round" stroke-linejoin="round"/>
    <path d="M16.666 2.5H12.4993C12.0391 2.5 11.666 2.8731 11.666 3.33333V5.83333C11.666 6.29357 12.0391 6.66667 12.4993 6.66667H16.666C17.1263 6.66667 17.4993 6.29357 17.4993 5.83333V3.33333C17.4993 2.8731 17.1263 2.5 16.666 2.5Z" stroke="currentColor" stroke-width="1.66667" stroke-linecap="round" stroke-linejoin="round"/>
    <path d="M16.666 10H12.4993C12.0391 10 11.666 10.3731 11.666 10.8333V16.6667C11.666 17.1269 12.0391 17.5 12.4993 17.5H16.666C17.1263 17.5 17.4993 17.1269 17.4993 16.6667V10.8333C17.4993 10.3731 17.1263 10 16.666 10Z" stroke="currentColor" stroke-width="1.66667" stroke-linecap="round" stroke-linejoin="round"/>
    <path d="M7.5 13.3333H3.33333C2.8731 13.3333 2.5 13.7063 2.5 14.1666V16.6666C2.5 17.1268 2.8731 17.4999 3.33333 17.4999H7.5C7.96024 17.4999 8.33333 17.1268 8.33333 16.6666V14.1666C8.33333 13.7063 7.96024 13.3333 7.5 13.3333Z" stroke="currentColor" stroke-width="1.66667" stroke-linecap="round" stroke-linejoin="round"/>
</svg>