<svg xmlns="http://www.w3.org/2000/svg" 
  viewBox="0 0 20 20" 
  fill="none"
  >
  <path d="M13.3327 17.5V15.8333C13.3327 14.9493 12.9815 14.1014 12.3564 13.4763C11.7313 12.8512 10.8834 12.5 9.99935 12.5H4.99935C4.11529 12.5 3.26745 12.8512 2.64233 13.4763C2.01721 14.1014 1.66602 14.9493 1.66602 15.8333V17.5" stroke="currentColor" stroke-width="1.66667" stroke-linecap="round" stroke-linejoin="round"/>
  <path d="M13.334 2.60669C14.0488 2.792 14.6818 3.20941 15.1337 3.79341C15.5856 4.37741 15.8308 5.09493 15.8308 5.83336C15.8308 6.57178 15.5856 7.28931 15.1337 7.8733C14.6818 8.4573 14.0488 8.87471 13.334 9.06002" stroke="currentColor" stroke-width="1.66667" stroke-linecap="round" stroke-linejoin="round"/>
  <path d="M18.334 17.5001V15.8334C18.3334 15.0948 18.0876 14.3774 17.6351 13.7937C17.1826 13.2099 16.5491 12.793 15.834 12.6084" stroke="currentColor" stroke-width="1.66667" stroke-linecap="round" stroke-linejoin="round"/>
  <path d="M7.49935 9.16667C9.3403 9.16667 10.8327 7.67428 10.8327 5.83333C10.8327 3.99238 9.3403 2.5 7.49935 2.5C5.6584 2.5 4.16602 3.99238 4.16602 5.83333C4.16602 7.67428 5.6584 9.16667 7.49935 9.16667Z" stroke="currentColor" stroke-width="1.66667" stroke-linecap="round" stroke-linejoin="round"/>
</svg>