<svg xmlns="http://www.w3.org/2000/svg"
    viewBox="0 0 35 35" 
    fill="none"
    >
    <path d="M17.4546 30.9091C10.0462 30.9091 4 24.8625 4 17.4546C4 10.0462 10.0467 4 17.4546 4C24.8629 4 30.9091 10.0466 30.9091 17.4546C30.9091 24.8629 24.8625 30.9091 17.4546 30.9091ZM17.4546 5.57671C10.9051 5.57671 5.57671 10.9051 5.57671 17.4546C5.57671 24.0041 10.9051 29.3324 17.4546 29.3324C24.0041 29.3324 29.3324 24.0041 29.3324 17.4546C29.3324 10.9051 24.0041 5.57671 17.4546 5.57671Z" fill="currentColor"/>
    <path d="M17.4554 21.3963C17.0201 21.3963 16.6671 21.0434 16.6671 20.608V19.7642C16.6671 18.3614 17.4221 17.0533 18.6374 16.3502C19.3671 15.9281 19.8205 15.1429 19.8205 14.3011C19.8205 12.997 18.7595 11.9361 17.4554 11.9361C16.1513 11.9361 15.0904 12.997 15.0904 14.3011C15.0904 14.7365 14.7374 15.0895 14.302 15.0895C13.8666 15.0895 13.5137 14.7365 13.5137 14.3011C13.5137 12.1277 15.2819 10.3594 17.4554 10.3594C19.6289 10.3594 21.3972 12.1277 21.3972 14.3011C21.3972 15.7039 20.6422 17.012 19.4269 17.7151C18.6971 18.1372 18.2438 18.9224 18.2438 19.7642V20.608C18.2438 21.0434 17.8908 21.3963 17.4554 21.3963Z" fill="currentColor"/>
    <path d="M17.4544 24.5499C17.8898 24.5499 18.2427 24.1969 18.2427 23.7615C18.2427 23.3261 17.8898 22.9731 17.4544 22.9731C17.019 22.9731 16.666 23.3261 16.666 23.7615C16.666 24.1969 17.019 24.5499 17.4544 24.5499Z" fill="currentColor"/>
  </svg>