<svg xmlns="http://www.w3.org/2000/svg" 
    viewBox="0 0 64 64" 
    fill="none"
  >
    <path d="M32.0007 58.6666C46.7282 58.6666 58.6673 46.7275 58.6673 31.9999C58.6673 17.2723 46.7282 5.33325 32.0007 5.33325C17.2731 5.33325 5.33398 17.2723 5.33398 31.9999C5.33398 46.7275 17.2731 58.6666 32.0007 58.6666Z" stroke="currentColor" stroke-width="5.33333" stroke-linecap="round" stroke-linejoin="round"/>
    <path d="M32 34.6667C36.4183 34.6667 40 31.085 40 26.6667C40 22.2485 36.4183 18.6667 32 18.6667C27.5817 18.6667 24 22.2485 24 26.6667C24 31.085 27.5817 34.6667 32 34.6667Z" stroke="currentColor" stroke-width="5.33333" stroke-linecap="round" stroke-linejoin="round"/>
    <path d="M18.666 55.0986V50.6666C18.666 49.2521 19.2279 47.8955 20.2281 46.8954C21.2283 45.8952 22.5849 45.3333 23.9993 45.3333H39.9993C41.4138 45.3333 42.7704 45.8952 43.7706 46.8954C44.7708 47.8955 45.3327 49.2521 45.3327 50.6666V55.0986" stroke="currentColor" stroke-width="5.33333" stroke-linecap="round" stroke-linejoin="round"/>
</svg>