<svg xmlns="http://www.w3.org/2000/svg" 
      viewBox="0 0 20 20" 
      fill="none"
    >
    <path d="M13.0151 9.27363C14.2948 8.34031 15.1282 6.82984 15.1282 5.1282C15.1282 2.30051 12.8277 0 9.99998 0C7.17228 0 4.87177 2.30051 4.87177 5.1282C4.87177 6.82984 5.70509 8.34031 6.98486 9.27363C3.80361 10.491 1.53845 13.5754 1.53845 17.1795C1.53845 18.7347 2.80373 20 4.35896 20H15.641C17.1962 20 18.4615 18.7347 18.4615 17.1795C18.4615 13.5754 16.1963 10.491 13.0151 9.27363ZM6.41025 5.1282C6.41025 3.14883 8.0206 1.53848 9.99998 1.53848C11.9794 1.53848 13.5897 3.14883 13.5897 5.1282C13.5897 7.10758 11.9794 8.71797 9.99998 8.71797C8.0206 8.71797 6.41025 7.10758 6.41025 5.1282ZM15.641 18.4615H4.35896C3.65205 18.4615 3.07693 17.8864 3.07693 17.1795C3.07693 13.362 6.18255 10.2564 10 10.2564C13.8175 10.2564 16.9231 13.362 16.9231 17.1795C16.9231 17.8864 16.3479 18.4615 15.641 18.4615Z" fill="currentColor"/>
  </svg>