<svg xmlns="http://www.w3.org/2000/svg" 
    viewBox="0 0 20 20" 
    fill="none"
>
    <path d="M15 6.66675C16.3807 6.66675 17.5 5.54746 17.5 4.16675C17.5 2.78604 16.3807 1.66675 15 1.66675C13.6193 1.66675 12.5 2.78604 12.5 4.16675C12.5 5.54746 13.6193 6.66675 15 6.66675Z" stroke="currentColor" stroke-width="1.66667" stroke-linecap="round" stroke-linejoin="round"/>
    <path d="M5 12.5C6.38071 12.5 7.5 11.3807 7.5 10C7.5 8.61929 6.38071 7.5 5 7.5C3.61929 7.5 2.5 8.61929 2.5 10C2.5 11.3807 3.61929 12.5 5 12.5Z" stroke="currentColor" stroke-width="1.66667" stroke-linecap="round" stroke-linejoin="round"/>
    <path d="M15 18.3333C16.3807 18.3333 17.5 17.214 17.5 15.8333C17.5 14.4525 16.3807 13.3333 15 13.3333C13.6193 13.3333 12.5 14.4525 12.5 15.8333C12.5 17.214 13.6193 18.3333 15 18.3333Z" stroke="currentColor" stroke-width="1.66667" stroke-linecap="round" stroke-linejoin="round"/>
    <path d="M7.1582 11.2583L12.8499 14.575" stroke="currentColor" stroke-width="1.66667" stroke-linecap="round" stroke-linejoin="round"/>
    <path d="M12.8415 5.42505L7.1582 8.74172" stroke="currentColor" stroke-width="1.66667" stroke-linecap="round" stroke-linejoin="round"/>
  </svg>