<svg width="20" height="20" viewBox="0 0 20 20" fill="none" xmlns="http://www.w3.org/2000/svg">
<path d="M9.60306 1.91274C9.63958 1.83895 9.696 1.77685 9.76594 1.73342C9.83588 1.69 9.91657 1.66699 9.9989 1.66699C10.0812 1.66699 10.1619 1.69 10.2319 1.73342C10.3018 1.77685 10.3582 1.83895 10.3947 1.91274L12.3197 5.8119C12.4465 6.06854 12.6337 6.29058 12.8653 6.45895C13.0968 6.62732 13.3657 6.737 13.6489 6.77857L17.9539 7.40857C18.0355 7.42039 18.1121 7.4548 18.1751 7.5079C18.2382 7.56101 18.2851 7.63069 18.3106 7.70908C18.3361 7.78746 18.3391 7.87141 18.3194 7.95143C18.2996 8.03146 18.2579 8.10436 18.1989 8.1619L15.0856 11.1936C14.8802 11.3937 14.7266 11.6406 14.6379 11.9133C14.5492 12.1859 14.5281 12.476 14.5764 12.7586L15.3114 17.0419C15.3258 17.1234 15.317 17.2074 15.286 17.2841C15.255 17.3609 15.203 17.4274 15.136 17.4761C15.069 17.5247 14.9897 17.5536 14.9071 17.5593C14.8245 17.5651 14.742 17.5475 14.6689 17.5086L10.8206 15.4852C10.567 15.3521 10.2849 15.2825 9.99848 15.2825C9.71208 15.2825 9.42996 15.3521 9.1764 15.4852L5.3289 17.5086C5.25584 17.5472 5.17339 17.5646 5.09094 17.5588C5.00848 17.5529 4.92933 17.524 4.86247 17.4754C4.79562 17.4268 4.74376 17.3604 4.71278 17.2838C4.6818 17.2071 4.67294 17.1233 4.68723 17.0419L5.4214 12.7594C5.46989 12.4767 5.44888 12.1864 5.36018 11.9136C5.27147 11.6408 5.11774 11.3937 4.91223 11.1936L1.7989 8.16274C1.73939 8.10526 1.69722 8.03223 1.6772 7.95197C1.65717 7.8717 1.66009 7.78742 1.68563 7.70873C1.71116 7.63004 1.75828 7.56011 1.82163 7.50689C1.88497 7.45367 1.96198 7.41932 2.0439 7.40774L6.34806 6.77857C6.63161 6.73732 6.90089 6.62778 7.13272 6.45939C7.36455 6.291 7.55198 6.0688 7.6789 5.8119L9.60306 1.91274Z" stroke="#314158" stroke-width="1.66667" stroke-linecap="round" stroke-linejoin="round"/>
</svg>
