<svg xmlns="http://www.w3.org/2000/svg" viewBox="0 0 2560 1177" width="400" height="184">
	<style>
		tspan { white-space:pre }
		.shp0 { opacity: 0.8;fill: #7c4dff } 
		.shp1 { opacity: 0.8;fill: #18a9e6 } 
		.shp2 { opacity: 0.8;fill: #01c9ea } 
		.shp3 { opacity: 0.961;fill: #6b5cfb } 
		.shp4 { opacity: 0.961;fill: #14aee7 } 
		.shp5 { fill: #ffffff } 
	</style>
	<g id="PIXOLID  copy">
		<path id="Path 0" class="shp0" d="M521.5,126.6c-7.7,0.75 -20.07,2.3 -27.5,3.43c-7.43,1.13 -17.77,2.98 -23,4.12c-5.23,1.13 -15.57,3.62 -23,5.53c-7.43,1.91 -19.8,5.52 -27.5,8.02c-7.7,2.5 -19.4,6.7 -26,9.33c-6.6,2.63 -17.62,7.33 -24.5,10.45c-6.87,3.11 -17.23,8.19 -23,11.27c-5.77,3.09 -15,8.3 -20.5,11.58c-5.5,3.28 -16.3,10.28 -24,15.56c-7.7,5.27 -18.27,12.92 -23.5,17c-5.23,4.08 -12.65,10.15 -16.5,13.5c-3.85,3.35 -12.11,10.82 -18.35,16.6c-6.24,5.78 -16.37,16.08 -22.5,22.88c-6.13,6.8 -16.24,18.73 -22.47,26.5c-6.22,7.77 -16.4,21.78 -22.6,31.13c-6.21,9.35 -13.33,20.6 -15.82,25c-2.5,4.4 -8.59,16.1 -13.53,26c-4.94,9.9 -11.92,25.43 -15.51,34.5c-3.58,9.07 -8.41,22.35 -10.72,29.5c-2.31,7.15 -5.96,19.86 -8.1,28.25c-2.15,8.39 -5.22,22.56 -6.83,31.5c-1.61,8.94 -3.74,23 -4.72,31.25c-1.4,11.76 -1.79,22.89 -1.82,51.5c-0.02,23.38 0.44,40.81 1.27,48.5c0.72,6.6 2.2,17.63 3.29,24.5c1.09,6.88 3.1,17.9 4.47,24.5c1.36,6.6 3.86,17.17 5.54,23.5c1.68,6.33 4.88,17.13 7.1,24c2.22,6.88 6.4,18.58 9.29,26c2.88,7.42 7.93,19.35 11.21,26.5c3.28,7.15 9.92,20.2 14.75,29c4.83,8.8 13.88,23.65 20.11,33c6.22,9.35 16.41,23.36 22.63,31.13c6.22,7.77 16.34,19.7 22.47,26.5c6.13,6.8 16.26,17.12 22.5,22.93c6.24,5.81 16.07,14.55 21.85,19.43c5.77,4.88 14.77,12.05 20,15.94c5.23,3.89 15.35,10.98 22.5,15.76c7.15,4.78 18.18,11.68 24.5,15.33c6.32,3.65 17.8,9.72 25.5,13.48c7.7,3.76 20.98,9.74 29.5,13.28c8.52,3.54 22.48,8.72 31,11.51c8.52,2.79 21.57,6.63 29,8.55c7.43,1.92 18,4.4 23.5,5.53c5.5,1.12 15.85,2.93 23,4.01c7.15,1.08 17.95,2.56 24,3.29c7.32,0.88 23.39,1.32 48,1.32c29.37,-0.01 39.89,-0.37 51,-1.78c7.7,-0.97 19.63,-2.69 26.5,-3.83c6.88,-1.13 18.35,-3.4 25.5,-5.04c7.15,-1.64 18.4,-4.5 25,-6.35c6.6,-1.86 17.85,-5.39 25,-7.85c7.15,-2.46 20.2,-7.51 29,-11.23c8.8,-3.72 22.75,-10.22 31,-14.43c8.25,-4.21 19.73,-10.5 25.5,-13.96c5.77,-3.47 16.13,-10.14 23,-14.84c6.88,-4.7 16.1,-11.27 20.5,-14.6c4.4,-3.33 13.63,-10.83 20.5,-16.66c6.88,-5.83 18.17,-16.19 25.1,-23.01c6.93,-6.82 16.27,-16.57 20.75,-21.65l8.15,-9.25c-14.43,-18.21 -21.3,-27.33 -24.58,-32c-3.28,-4.67 -9.17,-13.45 -13.09,-19.5c-3.92,-6.05 -11.08,-18.2 -15.91,-27c-4.83,-8.8 -11.68,-22.52 -15.24,-30.5c-3.56,-7.98 -8.59,-20.12 -11.18,-27l-4.72,-12.5c-13.15,21.7 -20.52,33.95 -24.87,41.21l-7.91,13.21l-101.5,0.08c6.44,-10.46 30.91,-50.4 58.53,-95.5l50.22,-82l0.6,-68c-80.1,-130.59 -103.35,-168.95 -103.35,-169.5c0,-0.65 17.27,-1.01 49.75,-1.03l49.75,-0.03c23.25,38 30.34,49.04 30.75,49.04c0.41,0.01 1.01,-1.23 1.32,-2.74c0.31,-1.51 3.07,-8.82 6.14,-16.25c3.06,-7.43 9.75,-21.82 14.85,-32c5.11,-10.18 12.96,-24.57 17.45,-32c4.49,-7.43 11.8,-18.68 16.23,-25c4.43,-6.32 12.27,-16.79 17.41,-23.25l9.35,-11.75c-12.69,-14.34 -22.02,-24.09 -28.93,-30.92c-6.91,-6.83 -18.19,-17.18 -25.07,-23.01c-6.87,-5.83 -16.1,-13.32 -20.5,-16.65c-4.4,-3.33 -13.62,-9.9 -20.5,-14.6c-6.87,-4.7 -17,-11.22 -22.5,-14.5c-5.5,-3.28 -14.73,-8.49 -20.5,-11.58c-5.77,-3.09 -16.12,-8.16 -23,-11.27c-6.87,-3.11 -17.9,-7.82 -24.5,-10.45c-6.6,-2.64 -17.62,-6.62 -24.5,-8.86c-6.87,-2.24 -16.55,-5.18 -21.5,-6.54c-4.95,-1.36 -15.08,-3.9 -22.5,-5.64c-7.42,-1.74 -20.25,-4.22 -28.5,-5.51c-8.25,-1.29 -22.42,-3.05 -31.5,-3.91c-11,-1.04 -25.99,-1.52 -45,-1.45c-15.68,0.06 -34.8,0.73 -42.5,1.49z"/>
		<path id="Path 1" class="shp1" d="M1235.5,126.56c-7.15,0.8 -19.08,2.36 -26.5,3.47c-7.42,1.11 -16.87,2.71 -21,3.54c-4.12,0.83 -14.03,3.12 -22,5.07c-7.97,1.96 -22.15,6.04 -31.5,9.08c-9.35,3.04 -23.97,8.43 -32.5,11.98c-8.53,3.55 -21.35,9.3 -28.5,12.77c-7.15,3.47 -17.28,8.76 -22.5,11.74c-5.22,2.98 -14,8.25 -19.5,11.71c-5.5,3.46 -15.17,9.95 -21.5,14.43c-6.33,4.47 -15.1,11.03 -19.5,14.58c-4.4,3.55 -12.71,10.53 -18.47,15.51c-5.76,4.98 -15.91,14.46 -22.56,21.06c-6.65,6.6 -15.33,15.71 -19.28,20.25l-7.19,8.25c12.14,15.11 18.75,23.77 22.52,29c3.77,5.23 10.08,14.45 14.02,20.5c3.93,6.05 9.88,15.95 13.21,22c3.33,6.05 7.41,13.48 9.05,16.5l2.99,5.5c86.57,0.49 89.17,0.6 88.62,2.25c-0.32,0.96 -12.71,21.55 -27.53,45.75l-26.94,44c4.6,20.93 6.65,30.82 7.53,35.5c0.88,4.67 2.52,15.92 3.65,25c1.45,11.67 2.21,25.14 2.59,46c0.34,18.52 0.1,35.27 -0.64,45c-0.65,8.52 -1.88,20.9 -2.74,27.5c-0.86,6.6 -3.2,20.28 -5.2,30.4l-3.64,18.4c45.34,74.16 58.5,95.92 58.5,96.19c0,0.27 -21.26,0.49 -47.25,0.48l-47.25,-0.02c-3.45,7.4 -7.46,14.95 -11.12,21.55c-3.67,6.6 -9.89,16.95 -13.83,23c-3.94,6.05 -10.25,15.27 -14.02,20.5c-3.77,5.23 -10.39,13.89 -14.69,19.25l-7.83,9.75c18.41,20.54 28.43,30.81 34.13,36.09c5.7,5.27 13.74,12.5 17.87,16.05c4.13,3.56 11.1,9.37 15.5,12.92c4.4,3.55 13.17,10.11 19.5,14.58c6.33,4.47 16,10.96 21.5,14.43c5.5,3.46 14.28,8.73 19.5,11.71c5.22,2.98 15.58,8.35 23,11.94c7.42,3.59 20.25,9.33 28.5,12.76c8.25,3.43 21.97,8.52 30.5,11.31c8.53,2.79 20.67,6.42 27,8.06c6.33,1.64 16.9,4.12 23.5,5.51c6.6,1.39 17.85,3.41 25,4.5c7.15,1.09 20.42,2.74 29.5,3.67c13.36,1.36 22.79,1.58 49.5,1.15c20.64,-0.34 37.31,-1.11 44.5,-2.05c6.33,-0.83 16.11,-2.22 21.75,-3.08c5.64,-0.86 15.76,-2.72 22.5,-4.14c6.74,-1.42 17.42,-3.92 23.75,-5.56c6.33,-1.64 18.47,-5.27 27,-8.06c8.53,-2.79 22.25,-7.9 30.5,-11.35c8.25,-3.45 19.28,-8.27 24.5,-10.71c5.22,-2.44 15.13,-7.51 22,-11.27c6.88,-3.76 18.58,-10.71 26,-15.44c7.42,-4.73 18.67,-12.37 25,-16.97c6.33,-4.6 16.66,-12.69 22.97,-17.96c6.31,-5.28 14.41,-12.27 18,-15.54c3.59,-3.27 11.26,-10.71 17.03,-16.53c5.78,-5.82 14.42,-15.07 19.21,-20.55c4.79,-5.48 8.71,-10.42 8.71,-10.97c0,-0.55 -3.06,-4.83 -6.81,-9.5c-3.74,-4.67 -10.86,-14.35 -15.82,-21.5c-4.96,-7.15 -12.4,-18.62 -16.53,-25.5c-4.14,-6.87 -9.71,-16.89 -12.39,-22.26l-4.87,-9.76l-32.5,0.02c0,-81.85 -0.15,-85.54 -1.99,-92.25c-1.1,-3.99 -3.32,-13.77 -4.94,-21.75c-1.62,-7.98 -3.87,-21.25 -4.99,-29.5c-1.12,-8.25 -2.5,-20.4 -3.05,-27c-0.55,-6.6 -1.01,-23.48 -1.01,-37.5c0,-14.02 0.45,-30.9 1.01,-37.5c0.55,-6.6 1.93,-18.75 3.06,-27c1.13,-8.25 3.58,-22.43 5.46,-31.5c1.88,-9.07 3.97,-18.07 4.66,-20c0.89,-2.49 1.39,-16.17 1.77,-47.5l0.53,-44l31.7,-1c13.13,-24.02 22.47,-39.32 29.23,-49.5c6.76,-10.18 15.73,-22.89 19.93,-28.25c4.2,-5.36 7.52,-10.18 7.39,-10.7c-0.14,-0.52 -5.94,-7.39 -12.89,-15.25c-6.95,-7.86 -17.75,-19.06 -24,-24.89c-6.25,-5.83 -14.74,-13.5 -18.86,-17.05c-4.12,-3.55 -11.1,-9.36 -15.5,-12.91c-4.4,-3.55 -13.17,-10.11 -19.5,-14.58c-6.33,-4.47 -16.45,-11.24 -22.5,-15.05c-6.05,-3.81 -16.62,-10 -23.5,-13.77c-6.87,-3.77 -16.78,-8.85 -22,-11.29c-5.22,-2.44 -16.25,-7.26 -24.5,-10.71c-8.25,-3.45 -22.65,-8.77 -32,-11.81c-9.35,-3.04 -23.53,-7.13 -31.5,-9.08c-7.97,-1.96 -17.87,-4.24 -22,-5.08c-4.12,-0.84 -12.22,-2.23 -18,-3.11c-5.78,-0.87 -15.67,-2.27 -22,-3.11c-7.88,-1.04 -22.84,-1.64 -47.5,-1.88c-26.85,-0.27 -39.3,0.01 -49,1.09z"/>
		<path id="Path 2" class="shp2" d="M1958.5,126.55c-7.15,0.79 -19.3,2.38 -27,3.54c-7.7,1.16 -20.08,3.43 -27.5,5.04c-7.42,1.61 -18.45,4.3 -24.5,5.96c-6.05,1.67 -17.3,5.09 -25,7.61c-7.7,2.52 -20.97,7.48 -29.5,11.02c-8.53,3.55 -21.35,9.29 -28.5,12.77c-7.15,3.48 -18.62,9.56 -25.5,13.52c-6.87,3.96 -18.12,10.91 -25,15.46c-6.87,4.54 -17.45,11.98 -23.5,16.53c-6.05,4.55 -16.85,13.31 -24,19.47c-7.15,6.16 -18.64,16.78 -25.54,23.61c-6.9,6.82 -16.68,17.25 -21.75,23.16c-5.07,5.91 -9.21,10.98 -9.21,11.25c0,0.27 3.06,4.44 6.8,9.25c3.74,4.81 9.49,12.57 12.77,17.25c3.28,4.68 9.18,13.45 13.11,19.5c3.93,6.05 10.36,16.85 14.29,24c3.93,7.15 9.32,17.5 11.98,23c2.66,5.5 7.3,15.85 10.31,23c3.01,7.15 7.74,19.52 10.5,27.5c2.76,7.98 6.63,20.35 8.61,27.5c1.97,7.15 4.92,19.3 6.55,27c1.63,7.7 3.65,18.27 4.48,23.5c0.84,5.23 2.25,15.35 3.14,22.5c0.98,7.84 1.84,24.7 2.17,42.5c0.34,18.49 0.11,35.29 -0.63,45c-0.65,8.52 -2.08,22.02 -3.19,30c-1.11,7.98 -3.36,21.02 -5,29c-1.64,7.98 -3.88,17.88 -4.97,22c-1.1,4.13 -2.2,8.29 -2.46,9.25c-0.43,1.65 2.13,1.75 43.54,1.75h44v81l-119.5,0.01c-8.46,16.66 -14.47,27.34 -18.8,34.49c-4.34,7.15 -11.53,18.17 -15.98,24.5c-4.45,6.33 -11.16,15.44 -14.91,20.25c-3.74,4.81 -6.81,8.98 -6.81,9.25c0,0.27 4.14,5.34 9.2,11.25c5.06,5.91 15.3,16.77 22.75,24.12c7.45,7.35 19.98,18.83 27.85,25.5c7.87,6.67 21.22,17.08 29.68,23.13c8.46,6.05 22.27,15.14 30.7,20.2c8.42,5.06 21.39,12.29 28.82,16.07c7.42,3.77 20.25,9.71 28.5,13.2c8.25,3.49 21.08,8.47 28.5,11.08c7.42,2.61 20.03,6.58 28,8.84c7.97,2.25 20.8,5.43 28.5,7.06c7.7,1.63 19.85,3.86 27,4.95c7.15,1.1 20.42,2.74 29.5,3.66c13.13,1.33 23.13,1.56 49,1.17c21.55,-0.33 36.88,-1.05 45.5,-2.15c7.15,-0.91 17.28,-2.34 22.5,-3.18c5.22,-0.84 15.8,-2.85 23.5,-4.48c7.7,-1.63 18.95,-4.33 25,-6.01c6.05,-1.68 15.95,-4.65 22,-6.59c6.05,-1.95 17.53,-6.13 25.5,-9.3c7.97,-3.17 20.13,-8.32 27,-11.44c6.88,-3.13 17.9,-8.65 24.5,-12.28c6.6,-3.63 16.72,-9.51 22.5,-13.06c5.78,-3.55 14.78,-9.43 20,-13.06c5.22,-3.63 13.32,-9.5 18,-13.04c4.68,-3.54 14.35,-11.48 21.5,-17.64c7.15,-6.16 18.64,-16.78 25.54,-23.59c6.89,-6.81 16.6,-17.11 21.57,-22.89c4.97,-5.77 12.61,-15 16.98,-20.5c4.37,-5.5 12.92,-17.42 19,-26.5c6.08,-9.08 12.66,-19.2 14.63,-22.5c1.96,-3.3 6.59,-11.62 10.28,-18.5c3.69,-6.87 9.19,-17.9 12.22,-24.5c3.03,-6.6 7.88,-18.08 10.78,-25.5c2.9,-7.42 7.14,-19.35 9.43,-26.5c2.29,-7.15 5.69,-18.85 7.56,-26c1.87,-7.15 4.54,-18.85 5.94,-26c1.4,-7.15 3.43,-19.3 4.51,-27c1.08,-7.7 2.44,-19.74 3.02,-26.75c0.58,-7.01 1.05,-24.11 1.04,-38c-0.01,-13.89 -0.46,-30.65 -1.02,-37.25c-0.55,-6.6 -1.89,-18.52 -2.98,-26.5c-1.08,-7.98 -3.34,-21.25 -5,-29.5c-1.67,-8.25 -4.41,-20.18 -6.1,-26.5c-1.69,-6.32 -4.89,-17.12 -7.11,-24c-2.22,-6.87 -6.49,-18.8 -9.48,-26.5c-2.99,-7.7 -8.44,-20.3 -12.11,-28c-3.67,-7.7 -9.86,-19.85 -13.76,-27c-3.9,-7.15 -9.49,-16.82 -12.42,-21.5c-2.93,-4.68 -8.92,-13.68 -13.32,-20c-4.4,-6.32 -11.39,-15.77 -15.53,-21c-4.15,-5.23 -11.6,-14.23 -16.56,-20c-4.96,-5.77 -14.66,-16.09 -21.56,-22.93c-6.89,-6.84 -18.39,-17.45 -25.54,-23.59c-7.15,-6.14 -16.82,-14.06 -21.5,-17.6c-4.68,-3.54 -12.78,-9.41 -18,-13.04c-5.22,-3.63 -14.22,-9.51 -20,-13.07c-5.78,-3.56 -16.35,-9.65 -23.5,-13.54c-7.15,-3.89 -17.95,-9.31 -24,-12.04c-6.05,-2.73 -17.07,-7.44 -24.5,-10.45c-7.43,-3.02 -19.12,-7.31 -26,-9.54c-6.87,-2.23 -17.45,-5.42 -23.5,-7.09c-6.05,-1.67 -17.3,-4.39 -25,-6.04c-7.7,-1.65 -18.28,-3.67 -23.5,-4.49c-5.22,-0.82 -15.35,-2.24 -22.5,-3.16c-9.38,-1.2 -22.89,-1.75 -48.5,-1.98c-25.98,-0.23 -38.99,0.07 -48.5,1.12z"/>
		<path id="Path 3" class="shp3" d="M913.24,302.25c-4.91,6.19 -12.55,16.43 -16.99,22.75c-4.44,6.32 -11.75,17.57 -16.26,25c-4.51,7.43 -12.78,22.73 -18.38,34c-5.6,11.27 -12.52,26.35 -15.36,33.5c-2.85,7.15 -5.3,13.9 -5.46,15c-0.17,1.21 9.82,18.51 25.21,43.68c14.02,22.92 25.73,41.46 26,41.19c0.27,-0.27 18.73,-30.28 41.01,-66.68l40.51,-66.19l11.47,-0.5c-6.41,-12.01 -10.54,-19.55 -13.32,-24.5c-2.78,-4.95 -7.94,-13.5 -11.49,-19c-3.54,-5.5 -9.17,-13.82 -12.5,-18.5c-3.33,-4.68 -10.03,-13.56 -14.88,-19.75c-4.85,-6.19 -9.23,-11.25 -9.74,-11.25c-0.51,0 -4.93,5.06 -9.84,11.25z"/>
		<path id="Path 4" class="shp4" d="M1633.61,305.59c-4.34,5.45 -13.42,18.23 -20.18,28.41c-6.76,10.18 -16.11,25.48 -20.77,34l-8.47,15.5l64.81,0.5v335h81c2.5,-8.91 4.75,-18.48 6.61,-27c1.86,-8.52 4.49,-23.15 5.85,-32.5c1.36,-9.35 2.99,-23.98 3.63,-32.5c0.72,-9.63 0.96,-26.67 0.62,-45c-0.33,-17.8 -1.19,-34.66 -2.17,-42.5c-0.89,-7.15 -2.31,-17.27 -3.14,-22.5c-0.84,-5.23 -2.85,-15.8 -4.48,-23.5c-1.63,-7.7 -4.58,-19.85 -6.55,-27c-1.97,-7.15 -5.84,-19.52 -8.6,-27.5c-2.76,-7.98 -7.97,-21.48 -11.58,-30c-3.61,-8.52 -9.46,-21.12 -12.99,-28c-3.53,-6.87 -9.13,-17.23 -12.45,-23c-3.32,-5.77 -10.08,-16.57 -15.03,-24c-4.95,-7.43 -12.06,-17.55 -15.8,-22.5c-3.74,-4.95 -8.07,-10.53 -9.61,-12.41l-2.81,-3.41"/>
		<path id="Path 5" class="shp5" d="M1263,378.14c-5.22,0.48 -14.45,1.8 -20.5,2.94c-6.05,1.14 -16.4,3.81 -23,5.95c-6.6,2.13 -17.63,6.71 -24.52,10.18c-6.89,3.46 -16.29,9 -20.89,12.3c-4.6,3.3 -12.65,10.05 -17.87,15c-5.23,4.95 -12.39,12.6 -15.93,17c-3.53,4.4 -8.95,12.05 -12.03,17c-3.09,4.95 -7.84,13.73 -10.57,19.5c-2.73,5.77 -6.88,16.35 -9.23,23.5c-2.35,7.15 -5.21,17.39 -6.36,22.75c-1.15,5.36 -2.75,14.14 -3.55,19.5c-0.8,5.36 -1.99,16.95 -2.63,25.75c-0.69,9.42 -0.92,23.19 -0.55,33.5c0.34,9.63 1.28,23.13 2.09,30c0.81,6.88 2.64,18.13 4.07,25c1.43,6.88 4.62,18.58 7.09,26c2.46,7.42 6.63,18 9.26,23.5c2.63,5.5 7.16,13.83 10.08,18.5c2.91,4.67 7.37,11.2 9.9,14.5c2.53,3.3 8.67,10.22 13.63,15.37c4.96,5.15 13.75,12.93 19.52,17.29c6.44,4.86 15.72,10.53 24,14.68c7.42,3.72 18,8.19 23.5,9.94c5.5,1.74 12.92,3.84 16.5,4.66c3.58,0.82 11.45,2.28 17.5,3.25c8.29,1.33 16.92,1.76 35,1.76c18.26,0 26.75,-0.44 35.5,-1.81c6.33,-1 16.45,-3.08 22.5,-4.64c6.05,-1.55 14.6,-4.25 19,-5.99c4.4,-1.74 12.72,-5.61 18.5,-8.59c5.78,-2.99 15.22,-8.97 21,-13.3c5.78,-4.33 14.56,-12.09 19.52,-17.24c4.96,-5.15 11.1,-12.07 13.63,-15.37c2.53,-3.3 6.99,-9.83 9.9,-14.5c2.91,-4.67 7.53,-13.23 10.26,-19c2.73,-5.77 6.92,-16.46 9.32,-23.75c2.4,-7.29 5.47,-18.76 6.83,-25.5c1.36,-6.74 3.23,-18.1 4.15,-25.25c1.17,-9.05 1.71,-20.75 1.76,-38.5c0.04,-14.94 -0.47,-30.26 -1.24,-37c-0.72,-6.33 -2.37,-17.35 -3.67,-24.5c-1.3,-7.15 -4,-18.4 -6,-25c-2,-6.6 -5.45,-16.27 -7.67,-21.5c-2.22,-5.23 -5.28,-11.98 -6.79,-15c-1.52,-3.02 -6.5,-11.12 -11.07,-18c-6.29,-9.45 -11.38,-15.55 -20.87,-25c-6.91,-6.88 -16.61,-15.36 -21.56,-18.85c-4.95,-3.49 -14.85,-9.2 -22,-12.68c-7.15,-3.48 -17.28,-7.73 -22.5,-9.43c-5.22,-1.7 -14.9,-4.18 -21.5,-5.49c-6.6,-1.32 -17.51,-2.88 -24.25,-3.46c-6.74,-0.59 -17.99,-1.01 -25,-0.93c-7.01,0.07 -17.03,0.53 -22.25,1.01zM175,592v208h97v-144c53.09,0 74.57,-0.46 82,-1.03c7.43,-0.56 17.32,-1.73 22,-2.59c4.68,-0.86 11.65,-2.42 15.5,-3.47c3.85,-1.05 10.38,-3.2 14.5,-4.78c4.13,-1.58 9.98,-4.12 13,-5.65c3.02,-1.52 8.65,-4.9 12.5,-7.5c3.85,-2.6 10.15,-7.65 14,-11.21c3.85,-3.57 9.85,-10.49 13.33,-15.38c3.48,-4.89 7.85,-12.05 9.71,-15.9c1.86,-3.85 4.54,-10.37 5.96,-14.5c1.42,-4.12 3.44,-11.33 4.49,-16c1.05,-4.67 2.46,-15.02 3.12,-23c0.93,-11.19 0.94,-17.81 0.04,-29c-0.64,-7.98 -2.05,-18.55 -3.13,-23.5c-1.08,-4.95 -3.03,-12.15 -4.34,-16c-1.31,-3.85 -3.93,-10.15 -5.82,-14c-1.89,-3.85 -5.19,-9.7 -7.33,-13c-2.14,-3.3 -8.91,-10.95 -15.04,-17c-7.35,-7.26 -13.85,-12.61 -19.08,-15.74c-4.36,-2.61 -11.53,-6.29 -15.93,-8.2c-4.4,-1.9 -12.73,-4.81 -18.5,-6.46c-5.77,-1.65 -14.77,-3.73 -20,-4.63c-5.23,-0.89 -16.7,-2.03 -25.5,-2.52c-8.8,-0.49 -51.21,-0.91 -94.25,-0.93l-78.25,-0.04M551,592v208h96v-416h-96M710,385c0,0.55 27.89,46.56 61.99,102.25c37.93,61.95 61.65,101.64 61.11,102.25c-0.48,0.55 -27.86,45.1 -60.83,99c-32.98,53.9 -61.82,101.04 -64.11,104.75l-4.15,6.75l101.5,-0.1c66.65,-109.8 86.23,-141.46 86.5,-141.18c0.27,0.28 19.91,32.06 43.64,70.64l43.14,70.14c77.67,0.39 100.22,0.27 100.22,0c0,-0.27 -29.03,-47.98 -64.5,-106l-64.5,-105.5c95.2,-155.39 123.1,-201.29 123.42,-202.25c0.55,-1.65 -2.19,-1.74 -49.65,-1.5l-50.23,0.25c-62.8,102.59 -81.26,132.6 -81.54,132.87c-0.27,0.27 -18.95,-29.64 -41.5,-66.46l-41,-66.95c-82.23,0.04 -99.5,0.39 -99.5,1.05zM1552.5,384.67c-0.46,0.37 -0.76,93.97 -0.67,208l0.17,207.33h266v-81h-169v-335c-74.14,0 -96.04,0.3 -96.5,0.67zM1879.51,384.66c-0.46,0.37 -0.77,93.98 -0.68,208.01l0.17,207.33h97l-0.5,-415.5c-73.74,-0.4 -95.53,-0.21 -95.99,0.16zM2070.16,591.84l-0.16,208.16c121.11,-0.61 156.11,-1.22 163,-1.89c6.32,-0.62 18.03,-2.04 26,-3.16c7.97,-1.12 19.9,-3.35 26.5,-4.95c6.6,-1.61 16.5,-4.72 22,-6.91c5.5,-2.19 14.28,-6.31 19.5,-9.14c5.22,-2.83 13.07,-7.69 17.43,-10.8c4.36,-3.11 12.18,-9.7 17.37,-14.65c5.19,-4.95 12.71,-13.05 16.7,-18c4,-4.95 9.43,-12.37 12.07,-16.5c2.64,-4.12 7.4,-12.9 10.56,-19.5c3.17,-6.6 6.88,-15.37 8.25,-19.5c1.37,-4.12 3.61,-12 4.98,-17.5c1.37,-5.5 3.18,-14.27 4.03,-19.5c0.85,-5.23 2.01,-15.35 2.57,-22.5c0.56,-7.15 1.03,-17.73 1.03,-23.5c0,-5.77 -0.46,-16.35 -1.03,-23.5c-0.56,-7.15 -1.73,-17.27 -2.58,-22.5c-0.86,-5.23 -2.44,-13.1 -3.52,-17.5c-1.08,-4.4 -3.34,-12.27 -5.03,-17.5c-1.69,-5.23 -5.66,-14.9 -8.83,-21.5c-3.17,-6.6 -8.94,-16.73 -12.81,-22.5c-3.88,-5.77 -10.82,-14.77 -15.44,-20c-4.62,-5.23 -11.96,-12.58 -16.33,-16.34c-4.36,-3.76 -12.21,-9.7 -17.44,-13.19c-5.22,-3.49 -14,-8.46 -19.5,-11.03c-5.5,-2.57 -14.5,-6.15 -20,-7.95c-5.5,-1.8 -15.85,-4.44 -23,-5.87c-7.15,-1.43 -18.85,-3.26 -26,-4.07c-7.15,-0.81 -18.85,-1.94 -26,-2.53c-7.15,-0.59 -44.77,-1.35 -83.59,-1.7l-70.59,-0.63"/>
		<path id="Path 6" class="shp1" d="M1268.5,456.48c-3.3,0.72 -8.25,2.17 -11,3.21c-2.75,1.04 -7.92,3.53 -11.5,5.52c-3.58,1.99 -9.2,6.06 -12.5,9.04c-3.3,2.98 -8.32,8.53 -11.16,12.33c-2.84,3.81 -6.95,10.29 -9.13,14.42c-2.18,4.13 -5.14,10.65 -6.56,14.5c-1.42,3.85 -3.68,11.27 -5.02,16.5c-1.34,5.23 -3.26,14.67 -4.25,21c-1.43,9.09 -1.81,17.37 -1.81,39.5c0,22.14 0.38,30.41 1.81,39.5c1,6.33 2.89,15.77 4.22,21c1.32,5.23 3.97,13.55 5.89,18.5c1.92,4.95 5.49,12.38 7.93,16.5c2.45,4.13 6.5,10.09 9.02,13.25c2.51,3.16 7.6,8.26 11.32,11.32c3.71,3.06 10.35,7.31 14.75,9.43c4.4,2.12 10.92,4.66 14.5,5.64c4.96,1.36 10.29,1.79 22.5,1.8c13.62,0.02 17.15,-0.31 23.75,-2.22c4.26,-1.23 10.11,-3.41 13,-4.85c2.89,-1.44 7.95,-4.53 11.25,-6.86c3.3,-2.33 8.25,-6.68 11,-9.66c2.75,-2.98 7.08,-8.56 9.63,-12.39c2.55,-3.83 5.99,-9.67 7.64,-12.97c1.66,-3.3 4.59,-10.73 6.53,-16.5c1.94,-5.77 4.43,-15.23 5.54,-21c1.11,-5.77 2.56,-16.35 3.23,-23.5c0.76,-8.24 1,-21.25 0.64,-35.5c-0.31,-12.37 -1.24,-26.77 -2.07,-32c-0.83,-5.23 -2.64,-14 -4.03,-19.5c-1.39,-5.5 -3.7,-13.15 -5.14,-17c-1.44,-3.85 -4.43,-10.37 -6.64,-14.5c-2.21,-4.12 -6.19,-10.43 -8.83,-14c-2.64,-3.57 -7.22,-8.79 -10.16,-11.59c-2.94,-2.8 -7.82,-6.67 -10.85,-8.6c-3.03,-1.93 -8.65,-4.76 -12.5,-6.28c-3.85,-1.52 -9.92,-3.38 -13.5,-4.13c-3.63,-0.76 -12.02,-1.34 -19,-1.3c-6.87,0.03 -15.2,0.66 -18.5,1.38z"/>
		<path id="Path 7" class="shp0" d="M272,520v58c51.85,-0.06 63.85,-0.49 69,-1.41c4.13,-0.73 10.64,-2.86 14.48,-4.72c4.28,-2.07 9.12,-5.51 12.5,-8.89c3.18,-3.17 6.87,-8.26 8.71,-12c1.76,-3.57 3.89,-9.42 4.74,-12.99c0.92,-3.88 1.54,-11.13 1.54,-18c0,-6.94 -0.62,-14.08 -1.55,-18c-0.85,-3.57 -2.75,-8.98 -4.21,-12c-1.55,-3.21 -5.58,-8.45 -9.68,-12.57c-5.67,-5.72 -8.46,-7.67 -14.52,-10.17c-4.12,-1.7 -10.99,-3.58 -15.25,-4.18c-4.26,-0.6 -20.8,-1.08 -36.75,-1.08h-29"/>
		<path id="Path 8" class="shp2" d="M2166.11,592.39l-0.11,126.61c34.1,0 48.39,-0.47 53.75,-1.05c5.36,-0.58 14.47,-2.18 20.25,-3.56c5.78,-1.38 14.32,-4.16 19,-6.17c4.68,-2.01 12.53,-6.38 17.45,-9.69c5.17,-3.48 11.72,-9.09 15.5,-13.28c3.6,-3.98 8.92,-11.18 11.83,-16c2.91,-4.82 6.64,-12.36 8.3,-16.76c1.66,-4.4 3.86,-11.37 4.88,-15.5c1.02,-4.12 2.46,-10.87 3.19,-15c0.85,-4.78 1.33,-15.65 1.33,-30c0,-17.52 -0.41,-24.82 -1.86,-33c-1.02,-5.77 -3.33,-15 -5.11,-20.5c-1.79,-5.5 -4.72,-12.92 -6.52,-16.5c-1.8,-3.58 -5.34,-9.42 -7.88,-13c-2.54,-3.57 -7.54,-9.38 -11.12,-12.9c-3.58,-3.52 -8.98,-8.07 -12,-10.12c-3.03,-2.04 -9.1,-5.51 -13.5,-7.7c-4.4,-2.19 -11.37,-5 -15.5,-6.24c-4.12,-1.24 -10.65,-2.92 -14.5,-3.74c-4.93,-1.05 -15.9,-1.65 -37.14,-2.01l-30.14,-0.51"/>
		<path id="Path 9" class="shp4" d="M1549.52,477.75c-0.92,3.71 -2.96,13.05 -4.52,20.75c-1.57,7.7 -3.76,20.52 -4.87,28.5c-1.11,7.98 -2.56,21.25 -3.21,29.5c-0.76,9.67 -0.98,25.83 -0.62,45.5c0.34,18.14 1.2,35.57 2.13,43c0.86,6.88 2.51,18.13 3.65,25c1.15,6.88 3.45,18.58 5.11,26c1.67,7.42 3.4,14.4 3.85,15.5c0.45,1.1 0.85,-52.56 0.88,-119.25c0.03,-66.69 -0.12,-121.25 -0.34,-121.25c-0.22,0 -1.16,3.04 -2.08,6.75z"/>
		<path id="Path 10" class="shp3" d="M984.18,532.05l-34.18,55.95c53.86,88.32 69.84,113.97 70.25,113.98c0.41,0.01 2.34,-8.42 4.28,-18.73c1.94,-10.31 4.17,-23.7 4.95,-29.75c0.78,-6.05 1.95,-17.98 2.6,-26.5c0.74,-9.71 0.97,-26.52 0.64,-45c-0.38,-21.04 -1.14,-34.38 -2.64,-46.5c-1.16,-9.35 -3.93,-26 -6.17,-37c-2.24,-11 -4.4,-20.54 -4.81,-21.2c-0.45,-0.73 -14.12,20.7 -34.92,54.75zM813.5,563c-0.33,3.58 -0.47,18.14 -0.3,32.37l0.3,25.87l20.5,-33.23c-14.1,-22.86 -18.58,-29.95 -19.04,-30.5c-0.49,-0.58 -1.11,1.75 -1.46,5.5zM873.73,687.36c-9.7,16.03 -21.65,35.67 -26.56,43.64l-8.92,14.5c7.34,19.38 12.38,31.52 15.94,39.5c3.56,7.98 10.41,21.7 15.24,30.5c4.83,8.8 11.98,20.95 15.91,27c3.92,6.05 9.82,14.83 13.1,19.5c3.28,4.67 9.93,13.56 14.77,19.75c4.84,6.19 9.25,11.25 9.8,11.25c0.55,0 4.97,-5.06 9.82,-11.25c4.85,-6.19 11.54,-15.08 14.88,-19.75c3.33,-4.67 8.95,-13 12.49,-18.5c3.54,-5.5 8.49,-13.6 11,-18c2.51,-4.4 6.41,-11.6 8.66,-16c2.26,-4.4 4.11,-8.34 4.13,-8.75c0.01,-0.41 -1.15,-0.86 -2.59,-1c-2.32,-0.22 -7.55,-8.27 -45.75,-70.39c-23.72,-38.58 -43.39,-70.37 -43.7,-70.64c-0.31,-0.28 -8.5,12.61 -18.21,28.64z"/>
		<path id="Path 11" class="shp4" d="M1585,800.5c0,0.27 2.08,4.66 4.63,9.75c2.55,5.09 8.01,14.88 12.14,21.75c4.13,6.88 11.57,18.35 16.52,25.5c4.96,7.15 12.1,16.94 15.86,21.75c3.77,4.81 7.07,8.75 7.35,8.75c0.28,0 3.56,-3.94 7.31,-8.75c3.74,-4.81 10.44,-13.92 14.88,-20.25c4.44,-6.33 11.05,-16.34 14.69,-22.25c3.64,-5.91 9.54,-16.26 13.1,-23c3.56,-6.74 6.49,-12.59 6.5,-13c0.01,-0.41 -25.41,-0.75 -56.48,-0.75c-31.08,0 -56.5,0.23 -56.5,0.5z"/>
	</g>
</svg>